<mxfile host="app.diagrams.net" agent="Mozilla/5.0 (Windows NT 10.0; Win64; x64) AppleWebKit/537.36 (KHTML, like Gecko) Chrome/129.0.0.0 Safari/537.36" version="24.8.1">
  <diagram name="PÃ¡gina-1" id="NItQ0TOBQuJ_9LcYcQk8">
    <mxGraphModel dx="880" dy="434" grid="1" gridSize="10" guides="1" tooltips="1" connect="1" arrows="1" fold="1" page="1" pageScale="1" pageWidth="827" pageHeight="1169" math="0" shadow="0">
      <root>
        <mxCell id="0" />
        <mxCell id="1" parent="0" />
        <mxCell id="jYZjZprRR-Jjqzwu8Dg6-18" style="edgeStyle=orthogonalEdgeStyle;rounded=0;orthogonalLoop=1;jettySize=auto;html=1;exitX=0.5;exitY=0.5;exitDx=0;exitDy=0;exitPerimeter=0;entryX=0;entryY=0.5;entryDx=0;entryDy=0;" edge="1" parent="1" source="jYZjZprRR-Jjqzwu8Dg6-1" target="jYZjZprRR-Jjqzwu8Dg6-6">
          <mxGeometry relative="1" as="geometry" />
        </mxCell>
        <mxCell id="jYZjZprRR-Jjqzwu8Dg6-19" style="edgeStyle=orthogonalEdgeStyle;rounded=0;orthogonalLoop=1;jettySize=auto;html=1;exitX=0.5;exitY=0.5;exitDx=0;exitDy=0;exitPerimeter=0;entryX=0;entryY=0.5;entryDx=0;entryDy=0;" edge="1" parent="1" source="jYZjZprRR-Jjqzwu8Dg6-1" target="jYZjZprRR-Jjqzwu8Dg6-8">
          <mxGeometry relative="1" as="geometry" />
        </mxCell>
        <mxCell id="jYZjZprRR-Jjqzwu8Dg6-20" style="edgeStyle=orthogonalEdgeStyle;rounded=0;orthogonalLoop=1;jettySize=auto;html=1;exitX=0.5;exitY=0.5;exitDx=0;exitDy=0;exitPerimeter=0;entryX=0;entryY=0.5;entryDx=0;entryDy=0;" edge="1" parent="1" source="jYZjZprRR-Jjqzwu8Dg6-1" target="jYZjZprRR-Jjqzwu8Dg6-13">
          <mxGeometry relative="1" as="geometry">
            <Array as="points">
              <mxPoint x="490" y="300" />
              <mxPoint x="490" y="300" />
            </Array>
          </mxGeometry>
        </mxCell>
        <mxCell id="jYZjZprRR-Jjqzwu8Dg6-22" style="edgeStyle=orthogonalEdgeStyle;rounded=0;orthogonalLoop=1;jettySize=auto;html=1;exitX=0.5;exitY=0.5;exitDx=0;exitDy=0;exitPerimeter=0;entryX=0;entryY=0.5;entryDx=0;entryDy=0;" edge="1" parent="1" source="jYZjZprRR-Jjqzwu8Dg6-1" target="jYZjZprRR-Jjqzwu8Dg6-17">
          <mxGeometry relative="1" as="geometry">
            <Array as="points">
              <mxPoint x="460" y="300" />
              <mxPoint x="460" y="360" />
            </Array>
          </mxGeometry>
        </mxCell>
        <mxCell id="jYZjZprRR-Jjqzwu8Dg6-23" style="edgeStyle=orthogonalEdgeStyle;rounded=0;orthogonalLoop=1;jettySize=auto;html=1;exitX=0.5;exitY=0.5;exitDx=0;exitDy=0;exitPerimeter=0;entryX=0;entryY=0.5;entryDx=0;entryDy=0;" edge="1" parent="1" source="jYZjZprRR-Jjqzwu8Dg6-1" target="jYZjZprRR-Jjqzwu8Dg6-10">
          <mxGeometry relative="1" as="geometry" />
        </mxCell>
        <mxCell id="jYZjZprRR-Jjqzwu8Dg6-24" style="edgeStyle=orthogonalEdgeStyle;rounded=0;orthogonalLoop=1;jettySize=auto;html=1;exitX=0.5;exitY=0.5;exitDx=0;exitDy=0;exitPerimeter=0;entryX=0;entryY=0.5;entryDx=0;entryDy=0;" edge="1" parent="1" source="jYZjZprRR-Jjqzwu8Dg6-1" target="jYZjZprRR-Jjqzwu8Dg6-11">
          <mxGeometry relative="1" as="geometry" />
        </mxCell>
        <mxCell id="jYZjZprRR-Jjqzwu8Dg6-25" style="edgeStyle=orthogonalEdgeStyle;rounded=0;orthogonalLoop=1;jettySize=auto;html=1;exitX=0.5;exitY=0.5;exitDx=0;exitDy=0;exitPerimeter=0;entryX=0;entryY=0.5;entryDx=0;entryDy=0;" edge="1" parent="1" source="jYZjZprRR-Jjqzwu8Dg6-1" target="jYZjZprRR-Jjqzwu8Dg6-15">
          <mxGeometry relative="1" as="geometry" />
        </mxCell>
        <mxCell id="jYZjZprRR-Jjqzwu8Dg6-1" value="Professor" style="shape=umlActor;verticalLabelPosition=bottom;verticalAlign=top;html=1;outlineConnect=0;" vertex="1" parent="1">
          <mxGeometry x="80" y="260" width="40" height="80" as="geometry" />
        </mxCell>
        <mxCell id="jYZjZprRR-Jjqzwu8Dg6-5" value="Cadastro e login" style="swimlane;whiteSpace=wrap;html=1;" vertex="1" parent="1">
          <mxGeometry x="240" y="140" width="200" height="150" as="geometry" />
        </mxCell>
        <mxCell id="jYZjZprRR-Jjqzwu8Dg6-6" value="Cadastrar no sistema" style="ellipse;whiteSpace=wrap;html=1;" vertex="1" parent="jYZjZprRR-Jjqzwu8Dg6-5">
          <mxGeometry x="25" y="40" width="150" height="40" as="geometry" />
        </mxCell>
        <mxCell id="jYZjZprRR-Jjqzwu8Dg6-8" value="Entrar no sistema" style="ellipse;whiteSpace=wrap;html=1;" vertex="1" parent="jYZjZprRR-Jjqzwu8Dg6-5">
          <mxGeometry x="25" y="90" width="150" height="40" as="geometry" />
        </mxCell>
        <mxCell id="jYZjZprRR-Jjqzwu8Dg6-9" value="Gerenciamento de turmas" style="swimlane;whiteSpace=wrap;html=1;" vertex="1" parent="1">
          <mxGeometry x="240" y="350" width="200" height="190" as="geometry" />
        </mxCell>
        <mxCell id="jYZjZprRR-Jjqzwu8Dg6-10" value="Cadastrar turma" style="ellipse;whiteSpace=wrap;html=1;" vertex="1" parent="jYZjZprRR-Jjqzwu8Dg6-9">
          <mxGeometry x="25" y="40" width="150" height="40" as="geometry" />
        </mxCell>
        <mxCell id="jYZjZprRR-Jjqzwu8Dg6-11" value="Excluir turma" style="ellipse;whiteSpace=wrap;html=1;" vertex="1" parent="jYZjZprRR-Jjqzwu8Dg6-9">
          <mxGeometry x="25" y="90" width="150" height="40" as="geometry" />
        </mxCell>
        <mxCell id="jYZjZprRR-Jjqzwu8Dg6-15" value="Visualizar turmas" style="ellipse;whiteSpace=wrap;html=1;" vertex="1" parent="jYZjZprRR-Jjqzwu8Dg6-9">
          <mxGeometry x="25" y="140" width="150" height="40" as="geometry" />
        </mxCell>
        <mxCell id="jYZjZprRR-Jjqzwu8Dg6-12" value="Gerenciamento de atividades" style="swimlane;whiteSpace=wrap;html=1;" vertex="1" parent="1">
          <mxGeometry x="490" y="240" width="200" height="150" as="geometry" />
        </mxCell>
        <mxCell id="jYZjZprRR-Jjqzwu8Dg6-13" value="Cadastrar atividade" style="ellipse;whiteSpace=wrap;html=1;" vertex="1" parent="jYZjZprRR-Jjqzwu8Dg6-12">
          <mxGeometry x="25" y="40" width="150" height="40" as="geometry" />
        </mxCell>
        <mxCell id="jYZjZprRR-Jjqzwu8Dg6-17" value="Visualisar atividades" style="ellipse;whiteSpace=wrap;html=1;" vertex="1" parent="jYZjZprRR-Jjqzwu8Dg6-12">
          <mxGeometry x="25" y="100" width="150" height="40" as="geometry" />
        </mxCell>
        <mxCell id="jYZjZprRR-Jjqzwu8Dg6-26" value="&lt;font style=&quot;font-size: 20px;&quot;&gt;Diagrama de Casos de Uso - Sistema de Gerenciamento de Turmas&lt;/font&gt;" style="text;html=1;align=center;verticalAlign=middle;whiteSpace=wrap;rounded=0;" vertex="1" parent="1">
          <mxGeometry x="470" y="60" width="310" height="110" as="geometry" />
        </mxCell>
      </root>
    </mxGraphModel>
  </diagram>
</mxfile>
